<svg width="44" height="44" viewBox="0 0 44 44" fill="none" xmlns="http://www.w3.org/2000/svg">
<path d="M33 5.5C34.9449 5.5 36.8101 6.27262 38.1854 7.64788C39.5607 9.02315 40.3333 10.8884 40.3333 12.8333V27.5C40.3333 29.4449 39.5607 31.3102 38.1854 32.6854C36.8101 34.0607 34.9449 34.8333 33 34.8333H24.3393L15.609 40.0712C15.346 40.229 15.0477 40.3183 14.7414 40.3309C14.435 40.3436 14.1304 40.2793 13.8553 40.1437C13.5802 40.0082 13.3436 39.8059 13.1669 39.5552C12.9903 39.3046 12.8794 39.0136 12.8443 38.709L12.8333 38.5V34.8333H11C9.11851 34.8333 7.30904 34.1102 5.9458 32.8135C4.58257 31.5168 3.76987 29.7458 3.67579 27.8667L3.66663 27.5V12.8333C3.66663 10.8884 4.43924 9.02315 5.81451 7.64788C7.18978 6.27262 9.05504 5.5 11 5.5H33ZM25.6666 22H14.6666C14.1804 22 13.7141 22.1932 13.3703 22.537C13.0264 22.8808 12.8333 23.3471 12.8333 23.8333C12.8333 24.3196 13.0264 24.7859 13.3703 25.1297C13.7141 25.4735 14.1804 25.6667 14.6666 25.6667H25.6666C26.1529 25.6667 26.6192 25.4735 26.963 25.1297C27.3068 24.7859 27.5 24.3196 27.5 23.8333C27.5 23.3471 27.3068 22.8808 26.963 22.537C26.6192 22.1932 26.1529 22 25.6666 22ZM29.3333 14.6667H14.6666C14.1804 14.6667 13.7141 14.8598 13.3703 15.2036C13.0264 15.5475 12.8333 16.0138 12.8333 16.5C12.8333 16.9862 13.0264 17.4525 13.3703 17.7964C13.7141 18.1402 14.1804 18.3333 14.6666 18.3333H29.3333C29.8195 18.3333 30.2858 18.1402 30.6297 17.7964C30.9735 17.4525 31.1666 16.9862 31.1666 16.5C31.1666 16.0138 30.9735 15.5475 30.6297 15.2036C30.2858 14.8598 29.8195 14.6667 29.3333 14.6667Z" fill="#005A5B"/>
</svg>
