<svg width="84" height="85" viewBox="0 0 84 85" fill="none" xmlns="http://www.w3.org/2000/svg">
<path d="M63 53.125H56V60.2083H63M63 38.9583H56V46.0417H63M70 67.2917H42V60.2083H49V53.125H42V46.0417H49V38.9583H42V31.875H70M35 24.7917H28V17.7083H35M35 38.9583H28V31.875H35M35 53.125H28V46.0417H35M35 67.2917H28V60.2083H35M21 24.7917H14V17.7083H21M21 38.9583H14V31.875H21M21 53.125H14V46.0417H21M21 67.2917H14V60.2083H21M42 24.7917V10.625H7V74.375H77V24.7917H42Z" fill="#5CA59F"/>
<path d="M63.3684 52.9385H56.3684V60.0218H63.3684M63.3684 38.7718H56.3684V45.8551H63.3684M70.3684 67.1051H42.3684V60.0218H49.3684V52.9385H42.3684V45.8551H49.3684V38.7718H42.3684V31.6885H70.3684M35.3684 24.6051H28.3684V17.5218H35.3684M35.3684 38.7718H28.3684V31.6885H35.3684M35.3684 52.9385H28.3684V45.8551H35.3684M35.3684 67.1051H28.3684V60.0218H35.3684M21.3684 24.6051H14.3684V17.5218H21.3684M21.3684 38.7718H14.3684V31.6885H21.3684M21.3684 52.9385H14.3684V45.8551H21.3684M21.3684 67.1051H14.3684V60.0218H21.3684M42.3684 24.6051V10.4385H7.36841V74.1885H77.3684V24.6051H42.3684Z" fill="#5CA59F"/>
</svg>
